<?xml version="1.0" encoding="UTF-8"?>
<svg xmlns="http://www.w3.org/2000/svg" width="512" height="512" viewBox="0 0 512 512" role="img" aria-label="American Garage logo">
  <defs>
    <linearGradient id="bg" x1="0" y1="0" x2="1" y2="1">
      <stop offset="0" stop-color="#0b0f1a"/>
      <stop offset="1" stop-color="#111827"/>
    </linearGradient>
    <linearGradient id="steel" x1="0" y1="0" x2="0" y2="1">
      <stop offset="0" stop-color="#f3f4f6"/>
      <stop offset="1" stop-color="#9ca3af"/>
    </linearGradient>
    <linearGradient id="red" x1="0" y1="0" x2="1" y2="1">
      <stop offset="0" stop-color="#ef4444"/>
      <stop offset="1" stop-color="#b91c1c"/>
    </linearGradient>
  </defs>

  <!-- Outer badge -->
  <rect x="44" y="44" width="424" height="424" rx="96" fill="url(#bg)" stroke="#1f2937" stroke-width="10"/>
  <rect x="70" y="70" width="372" height="372" rx="78" fill="none" stroke="rgba(255,255,255,0.10)" stroke-width="6"/>

  <!-- Stripes -->
  <g opacity="0.95">
    <path d="M102 168h308v34H102z" fill="#111827"/>
    <path d="M102 202h308v22H102z" fill="#ffffff" opacity="0.9"/>
    <path d="M102 224h308v24H102z" fill="url(#red)"/>
    <path d="M102 248h308v22H102z" fill="#ffffff" opacity="0.9"/>
    <path d="M102 270h308v34H102z" fill="#111827"/>
  </g>

  <!-- Stars -->
  <g fill="#f9fafb" opacity="0.95">
    <path d="M132 136l6 12 13 2-9 9 2 13-12-6-12 6 2-13-9-9 13-2z"/>
    <path d="M380 136l6 12 13 2-9 9 2 13-12-6-12 6 2-13-9-9 13-2z"/>
  </g>

  <!-- Car silhouette -->
  <path d="M148 330c6-20 18-42 40-52 20-10 52-14 68-14s48 4 68 14c22 10 34 32 40 52l12 8c6 4 10 10 10 18v20c0 10-8 18-18 18h-16c-4 16-18 28-36 28s-32-12-36-28H212c-4 16-18 28-36 28s-32-12-36-28h-16c-10 0-18-8-18-18v-20c0-8 4-14 10-18zm44 0h128c-2-10-8-18-18-22-14-6-36-10-46-10s-32 4-46 10c-10 4-16 12-18 22z"
        fill="url(#steel)" opacity="0.95"/>

  <!-- Wrench icon -->
  <g transform="translate(332 316) rotate(22)">
    <path d="M54 16c6 10 4 24-6 34l-8 8 18 18c4 4 4 10 0 14l-8 8c-4 4-10 4-14 0L18 92c-10 10-24 12-34 6l14-14-8-18 18 8 14-14-8-18 18 8 14-14z"
          fill="#e5e7eb" opacity="0.9"/>
  </g>

  <!-- Text -->
  <g font-family="system-ui, -apple-system, Segoe UI, Roboto, Arial" text-anchor="middle">
    <text x="256" y="200" font-size="36" font-weight="900" fill="#f9fafb" letter-spacing="1">AMERICAN</text>
    <text x="256" y="244" font-size="34" font-weight="900" fill="#f9fafb" letter-spacing="1">GARAGE</text>
    <text x="256" y="410" font-size="18" font-weight="800" fill="rgba(249,250,251,0.78)" letter-spacing="2">CUSTOMS • SHOP</text>
  </g>
</svg>
